<?xml version="1.0" standalone="no"?><!DOCTYPE svg PUBLIC "-//W3C//DTD SVG 1.1//EN" "http://www.w3.org/Graphics/SVG/1.1/DTD/svg11.dtd"><svg t="1539074789139" class="icon" style="" viewBox="0 0 1024 1024" version="1.1" xmlns="http://www.w3.org/2000/svg" p-id="4514" xmlns:xlink="http://www.w3.org/1999/xlink" width="200" height="200"><defs><style type="text/css"></style></defs><path d="M819.438021 200.165856l-615.014188 0c-6.753821 0-12.279674-5.525853-12.279674-12.279674l0-1.547239c0-6.753821 5.525853-12.279674 12.279674-12.279674l615.014188 0c6.753821 0 12.279674 5.525853 12.279674 12.279674l0 1.547239C831.717695 194.640002 826.191842 200.165856 819.438021 200.165856z" p-id="4515"></path><path d="M819.699987 375.815341l-102.599749 0c-6.753821 0-12.279674-5.525853-12.279674-12.279674l0-1.547239c0-6.753821 5.525853-12.279674 12.279674-12.279674l102.599749 0c6.753821 0 12.279674 5.525853 12.279674 12.279674l0 1.547239C831.979662 370.288464 826.453808 375.815341 819.699987 375.815341z" p-id="4516"></path><path d="M819.699987 543.779797l-102.599749 0c-6.753821 0-12.279674-5.525853-12.279674-12.279674l0-1.547239c0-6.753821 5.525853-12.279674 12.279674-12.279674l102.599749 0c6.753821 0 12.279674 5.525853 12.279674 12.279674l0 1.547239C831.979662 538.253944 826.453808 543.779797 819.699987 543.779797z" p-id="4517"></path><path d="M957.092148 681.544441l-1.093914-1.093914c-4.77577-4.77577-12.590759-4.77577-17.365506 0L708.895369 927.930991l-77.573773-77.573773c-4.77577-4.77577-12.590759-4.77577-17.365506 0l-1.093914 1.093914c-4.77577 4.77577-4.77577 12.590759 0 17.366529l85.573981 85.573981c1.312902 1.312902 2.858094 2.251274 4.503571 2.841721 4.777817 3.297093 11.416004 2.833535 15.659655-1.409093l238.493789-256.913301C961.867918 694.1352 961.867918 686.320211 957.092148 681.544441z" p-id="4518"></path><path d="M276.903587 423.083901l266.739087 0c10.894118 0 19.72525 8.831132 19.72525 19.72525l0 113.837698c0 10.894118-8.831132 19.72525-19.72525 19.72525l-173.187411 0c-7.29208 11.640108-15.57165 22.292726-24.384363 32.961716l202.223724 0c8.860808 0 16.043395 7.182586 16.043395 16.043395l0 1.850138c0 4.79419-1.650593 9.456373-4.726651 13.134135-23.760147 28.411073-54.328349 51.745525-91.75475 70.798463 41.380456 12.005428 87.336114 19.49296 137.194662 22.409382 10.160407 0.594541 17.259082 10.29753 14.68956 20.144806l0 0c-1.942235 7.442506-8.877181 12.504802-16.554024 12.011568-65.820078-4.226255-125.172861-16.128329-177.185468-36.119639-54.973032 20.387329-120.617102 32.819476-197.804065 38.109969-6.427386 0.440022-12.465916-3.137457-15.174608-8.982582l0 0c-4.604878-9.939373 2.241041-21.393239 13.175067-22.058388 60.894905-3.706415 113.680109-12.063757 158.376077-25.035186-33.154098-15.95539-62.84635-35.373649-89.134063-58.162678-16.297175 11.072173-34.483372 21.794375-54.341652 31.68156-7.777127 3.872191-17.229406 1.091868-21.756513-6.323009l0 0c-5.288446-8.66331-1.724271-19.957541 7.53665-24.112164 47.034223-21.10262 82.108043-47.24707 105.546871-78.351486l-42.61968 0c-10.894118 0-19.724227-8.831132-19.724227-19.72525L270.081205 431.357332c-12.846586 14.673188-26.886347 28.484751-42.569538 41.425482-7.485485 6.176676-18.611893 4.90573-24.532743-2.785439l0 0c-5.643534-7.329942-4.454452-17.803481 2.667759-23.704888 39.257096-32.529881 67.440995-70.484308 84.576257-114.3954 2.964518-7.599072 10.885931-12.044314 18.929118-10.68434l0 0c10.768251 1.821485 17.171078 13.065574 13.225209 23.248494-1.912559 4.934382-3.914146 9.8176-5.997598 14.607696l269.682116 0c8.441253 0 15.283078 6.842849 15.283078 15.283078l0 0c0 8.441253-6.842849 15.283078-15.283078 15.283078l-285.749046 0C292.998147 401.25985 285.219997 412.408771 276.903587 423.083901M529.232476 450.721355l-224.546126 0 0 35.394115 224.546126 0L529.232476 450.721355zM529.232476 512.357134l-224.546126 0 0 35.868929 224.546126 0L529.232476 512.357134zM520.963139 637.95262l-200.204741 0c31.15865 24.245194 66.23861 44.143383 105.71981 59.635215C465.436498 681.616072 497.118058 661.697417 520.963139 637.95262" p-id="4519"></path><path d="M498.778884 933.317675l-322.183863 0c-62.562894 0-85.86153-23.422456-85.86153-85.86153L90.733491 177.973414c0-65.574484 21.252023-85.86153 85.86153-85.86153l669.482731 0c69.543889 0 85.86153 20.969591 85.86153 85.86153l0 382.933459c0 7.369851 5.974062 13.343913 13.344936 13.343913l0 0c7.369851 0 13.343913-5.974062 13.343913-13.343913L958.62813 151.284565c0-47.223534-38.637995-85.86153-85.86153-85.86153l-722.859405 0c-47.224558 0-85.862553 38.637995-85.862553 85.86153l0 722.859405c0 47.224558 38.637995 85.86153 85.86153 85.86153l348.872712 0c7.369851 0 13.343913-5.974062 13.343913-13.343913l0 0C512.122797 939.291736 506.147712 933.317675 498.778884 933.317675z" p-id="4520"></path></svg>